<svg xmlns="http://www.w3.org/2000/svg" xmlns:xlink="http://www.w3.org/1999/xlink" width="1080" zoomAndPan="magnify" viewBox="0 0 810 809.999993" height="1080" preserveAspectRatio="xMidYMid meet" version="1.0"><defs><clipPath id="2baf907600"><path d="M 245 305.738281 L 566 305.738281 L 566 504.488281 L 245 504.488281 Z M 245 305.738281 " clip-rule="nonzero"/></clipPath></defs><g clip-path="url(#2baf907600)"><path fill="#000000" d="M 563.695312 397.347656 C 531.152344 340.929688 470.542969 305.882812 405.515625 305.882812 C 340.492188 305.882812 279.878906 340.929688 247.335938 397.347656 C 244.558594 402.152344 244.558594 408.074219 247.335938 412.875 C 279.878906 469.292969 340.492188 504.34375 405.515625 504.34375 C 470.542969 504.34375 531.152344 469.292969 563.695312 412.875 C 566.472656 408.074219 566.472656 402.152344 563.695312 397.347656 Z M 405.515625 473.289062 C 354.578125 473.289062 306.910156 447.390625 278.992188 405.113281 C 306.910156 362.835938 354.578125 336.9375 405.515625 336.9375 C 456.457031 336.9375 504.125 362.835938 532.042969 405.113281 C 504.125 447.390625 456.457031 473.289062 405.515625 473.289062 Z M 405.515625 473.289062 " fill-opacity="1" fill-rule="nonzero"/></g><path fill="#000000" d="M 405.515625 343.558594 C 371.621094 343.558594 344.035156 371.175781 344.035156 405.113281 C 344.035156 439.050781 371.621094 466.667969 405.515625 466.667969 C 439.414062 466.667969 466.996094 439.050781 466.996094 405.113281 C 466.996094 371.175781 439.414062 343.558594 405.515625 343.558594 Z M 405.515625 435.613281 C 388.714844 435.613281 375.054688 421.933594 375.054688 405.113281 C 375.054688 388.292969 388.714844 374.613281 405.515625 374.613281 C 422.320312 374.613281 435.980469 388.292969 435.980469 405.113281 C 435.980469 421.933594 422.320312 435.613281 405.515625 435.613281 Z M 405.515625 435.613281 " fill-opacity="1" fill-rule="nonzero"/></svg>